# Blender 5.0.0
# www.blender.org
mtllib body_cell_005.mtl
o body_cell.005
v -1.159112 1.178400 -1.595382
v -0.895269 1.178400 -1.757065
v -1.171309 1.037175 -1.612169
v -0.904690 1.037175 -1.775553
v -0.615794 1.037175 -1.895218
v -1.414214 0.900000 -1.414214
v -1.175570 0.900000 -1.618034
v -0.907981 0.900000 -1.782013
v -0.618034 0.900000 -1.902113
v -0.312869 0.900000 -1.975377
v -1.404314 0.771675 -1.404314
v -1.167341 0.771675 -1.606708
v -0.901625 0.771675 -1.769539
v -0.613708 0.771675 -1.888798
v -0.310679 0.771675 -1.961549
v 0.000000 0.771675 -1.986000
v -1.145006 0.656400 -1.575965
v -0.884373 0.656400 -1.735681
v -0.601965 0.656400 -1.852658
v -0.304734 0.656400 -1.924017
v 0.000000 0.656400 -1.948000
v -1.112089 0.553725 -1.530660
v -0.858950 0.553725 -1.685784
v -0.584660 0.553725 -1.799399
v -0.295974 0.553725 -1.868706
v 0.000000 0.553725 -1.892000
v -1.072120 0.463200 -1.475647
v -0.828079 0.463200 -1.625196
v -0.563647 0.463200 -1.734727
v -0.285337 0.463200 -1.801544
v 0.000000 0.463200 -1.824000
v -0.794483 0.384375 -1.559261
v -0.540780 0.384375 -1.664349
v -0.273760 0.384375 -1.728455
v 0.000000 0.384375 -1.750000
v -0.760888 0.316800 -1.493327
v -0.517912 0.316800 -1.593971
v -0.262184 0.316800 -1.655366
v 0.000000 0.316800 -1.676000
v -0.496899 0.260025 -1.529299
v -0.251547 0.260025 -1.588203
v 0.000000 0.260025 -1.608000
v 0.295974 0.553725 -1.868706
v 0.285336 0.463200 -1.801544
v 0.273760 0.384375 -1.728455
v 0.262184 0.316800 -1.655366
v 0.251547 0.260025 -1.588203
v -0.505629 0.463750 -1.556166
v -0.255966 0.463750 -1.616105
v 0.000000 0.463750 -1.636250
v -0.787837 0.578640 -1.546217
v -0.536256 0.578640 -1.650425
v -0.271470 0.578640 -1.713995
v 0.000000 0.578640 -1.735360
v -1.064732 0.723170 -1.465478
v -0.822372 0.723170 -1.613996
v -0.559763 0.723170 -1.722772
v -0.283370 0.723170 -1.789128
v 0.000000 0.723170 -1.811430
v -1.089942 0.900880 -1.500176
v -0.841844 0.900880 -1.652211
v -0.573016 0.900880 -1.763563
v -0.290080 0.900880 -1.831490
v -0.841648 1.115310 -1.651828
v 0.086985 0.399244 -1.548029
v 0.231783 0.417106 -1.559166
v 0.303957 0.265038 -1.581776
v 0.452193 0.301718 -1.591229
v -1.361102 0.656400 -1.391401
v -1.385509 0.691001 -1.385509
v -1.392168 0.702744 -1.383655
v -1.136430 0.723170 -1.404242
v -1.250710 0.553725 -1.412267
v -1.121460 0.463200 -1.433506
v -1.034475 0.625366 -1.423832
v -0.969984 0.578640 -1.434597
v -0.962814 0.384375 -1.456108
v -1.049384 0.421998 -1.444354
v -0.783745 0.316800 -1.479320
v -0.714341 0.463750 -1.469715
v -0.755566 0.307012 -1.482882
v -0.491595 0.245795 -1.512974
v -0.485916 0.413182 -1.495496
v -0.243605 0.217937 -1.538059
v -0.553265 0.260025 -1.505952
v 0.000000 0.219862 -1.559553
v 0.000000 0.388583 -1.541426
v -0.240772 0.386757 -1.520173
v 0.249993 0.251791 -1.578393
v 0.283618 0.260025 -1.580503
v -0.746826 0.473922 -1.465728
v 0.152633 0.578640 -1.723348
v 0.078459 0.657046 -1.770452
v 0.222293 0.463750 -1.618755
v 0.340420 0.553725 -1.858036
v 0.330590 0.566249 -1.867399
v 0.449115 0.316800 -1.610488
v 0.429149 0.384375 -1.691149
v 0.394889 0.463200 -1.775243
v -0.969105 1.166078 -1.561162
v -1.012236 1.262384 -1.663182
v -0.838961 1.143286 -1.646554
v -0.888844 1.240987 -1.744454
v -0.572919 1.057297 -1.763265
v -0.317731 1.037175 -1.966776
v -0.674101 1.178400 -1.848676
v -0.743854 1.115310 -1.692336
v -0.610270 1.158819 -1.878220
v -0.311757 1.034534 -1.968354
v -0.290071 0.927799 -1.831437
v -0.242647 0.900880 -1.835223
v -0.066542 0.900000 -1.994763
v 0.000000 0.735835 -1.814487
v 0.000000 0.859143 -1.995543
v 0.119850 0.771675 -1.976568
v 0.300319 0.604651 -1.896140
v 0.252173 0.656400 -1.928154
v 0.015666 0.723170 -1.810197
v -1.176421 1.178400 -1.580599
v -1.157447 1.190926 -1.593090
v -1.270027 1.111419 -1.513554
v -1.070931 1.115310 -1.511323
v -1.089703 1.103761 -1.499847
v -1.127256 1.072017 -1.467856
v -1.464889 0.949385 -1.350874
v -1.410179 1.007949 -1.410179
v -1.373510 1.037175 -1.439472
v -1.244556 0.972566 -1.367934
v -1.431200 0.771675 -1.372834
v -1.463720 0.900000 -1.356250
v -1.234803 0.900880 -1.376453
v 0.303957 0.265038 -1.581776
v 0.452193 0.301718 -1.591229
v 0.086985 0.399244 -1.548029
v 0.231783 0.417106 -1.559166
v -0.969984 0.578640 -1.434597
v -0.746826 0.473922 -1.465728
v -1.034475 0.625366 -1.423832
v -1.136430 0.723170 -1.404242
v -1.385509 0.691001 -1.385509
v -1.392168 0.702744 -1.383655
v -1.361102 0.656400 -1.391401
v -1.250710 0.553725 -1.412267
v -1.121460 0.463200 -1.433506
v -1.049384 0.421998 -1.444354
v -0.962814 0.384375 -1.456108
v -0.783745 0.316800 -1.479320
v -0.755566 0.307012 -1.482882
v -0.553265 0.260025 -1.505952
v -0.491595 0.245795 -1.512974
v -0.243605 0.217937 -1.538059
v 0.000000 0.219862 -1.559553
v 0.249993 0.251791 -1.578393
v 0.283618 0.260025 -1.580503
v 0.000000 0.388583 -1.541426
v -0.240772 0.386757 -1.520173
v -0.485916 0.413182 -1.495496
v -0.714341 0.463750 -1.469715
v 0.152633 0.578640 -1.723348
v 0.078459 0.657046 -1.770452
v 0.222293 0.463750 -1.618755
v 0.449115 0.316800 -1.610488
v 0.429149 0.384375 -1.691149
v 0.394889 0.463200 -1.775243
v 0.340420 0.553725 -1.858036
v 0.330590 0.566249 -1.867399
v -0.838961 1.143286 -1.646554
v -0.969105 1.166078 -1.561162
v -0.743854 1.115310 -1.692336
v -0.572919 1.057297 -1.763265
v -0.290071 0.927799 -1.831437
v -0.242647 0.900880 -1.835223
v 0.000000 0.735835 -1.814487
v 0.015666 0.723170 -1.810197
v 0.300319 0.604651 -1.896140
v 0.252173 0.656400 -1.928154
v 0.119850 0.771675 -1.976568
v 0.000000 0.859143 -1.995543
v -0.066542 0.900000 -1.994763
v -0.311757 1.034534 -1.968354
v -0.317731 1.037175 -1.966776
v -0.610270 1.158819 -1.878220
v -0.674101 1.178400 -1.848676
v -0.888844 1.240987 -1.744454
v -1.012236 1.262384 -1.663182
v -1.157447 1.190926 -1.593090
v -1.176421 1.178400 -1.580599
v -1.270027 1.111419 -1.513554
v -1.089703 1.103761 -1.499847
v -1.127256 1.072017 -1.467856
v -1.070931 1.115310 -1.511323
v -1.244556 0.972566 -1.367934
v -1.373510 1.037175 -1.439472
v -1.410179 1.007949 -1.410179
v -1.464889 0.949385 -1.350874
v -1.234803 0.900880 -1.376453
v -1.463720 0.900000 -1.356250
v -1.431200 0.771675 -1.372834
vn 0.0891 -0.1050 0.9905
vn 0.4573 0.7342 0.5018
vn 0.4572 0.7351 0.5006
vn -0.0219 0.7224 0.6912
vn -0.0223 0.7216 0.6920
vn -0.5779 0.1828 -0.7954
vn -0.6414 0.1574 -0.7509
vn -0.5541 0.2205 -0.8027
vn -0.1199 -0.6421 -0.7571
vn -0.1100 -0.7110 -0.6945
vn -0.2173 -0.7110 -0.6688
vn -0.2369 -0.6421 -0.7291
vn -0.3075 0.0990 -0.9464
vn -0.4518 0.0990 -0.8866
vn -0.4463 0.1828 -0.8760
vn -0.3783 0.1513 -0.9132
vn -0.3216 0.1453 -0.9356
vn -0.0000 -0.6421 -0.7666
vn -0.0000 -0.7110 -0.7032
vn -0.3192 -0.7110 -0.6265
vn -0.3480 -0.6421 -0.6830
vn 0.1296 0.5605 0.8180
vn 0.2559 0.5605 0.7876
vn 0.2147 0.7193 0.6607
vn 0.1087 0.7193 0.6862
vn 0.0947 0.7836 0.6139
vn 0.1840 0.7836 0.5933
vn -0.7068 -0.0278 -0.7068
vn -0.7603 -0.0183 -0.6493
vn -0.7594 0.0526 -0.6485
vn -0.6844 0.0528 -0.7272
vn 0.1625 -0.7181 -0.6767
vn 0.1100 -0.7110 -0.6945
vn 0.1199 -0.6421 -0.7571
vn 0.1761 -0.6564 -0.7335
vn -0.0782 -0.0822 -0.9935
vn -0.1564 -0.0278 -0.9873
vn -0.1792 0.0528 -0.9824
vn -0.5849 0.0990 -0.8050
vn -0.5876 -0.0278 -0.8087
vn -0.6479 0.0685 -0.7586
vn 0.2894 0.3509 0.8906
vn 0.4251 0.3509 0.8344
vn 0.3760 0.5605 0.7379
vn 0.1554 0.1165 0.9810
vn 0.3069 0.1165 0.9446
vn 0.1465 0.3509 0.9249
vn 0.5504 0.3509 0.7576
vn 0.4902 0.4654 0.7369
vn 0.4515 0.5033 0.7368
vn -0.2330 0.0640 -0.9704
vn -0.5097 0.2199 -0.8318
vn -0.4520 0.2206 -0.8643
vn 0.0705 -0.4389 -0.8958
vn -0.0000 -0.3959 -0.9183
vn -0.0000 -0.2109 -0.9775
vn 0.0755 -0.2710 -0.9596
vn -0.0628 0.6002 0.7974
vn -0.0000 0.5605 0.8282
vn -0.0000 0.7193 0.6947
vn -0.0532 0.7356 0.6753
vn -0.0488 0.7827 0.6205
vn 0.0033 0.7836 0.6212
vn -0.1529 -0.2109 -0.9655
vn -0.3021 -0.2109 -0.9297
vn -0.3089 -0.0278 -0.9507
vn 0.4509 0.1165 0.8849
vn -0.4169 -0.3959 -0.8182
vn -0.3823 -0.5395 -0.7502
vn -0.4949 -0.5395 -0.6812
vn -0.5397 -0.3959 -0.7429
vn -0.4438 -0.2109 -0.8710
vn -0.5746 -0.2109 -0.7908
vn -0.5095 -0.6202 -0.5965
vn -0.5586 -0.5102 -0.6540
vn -0.4506 -0.6421 -0.6202
vn -0.0000 -0.5395 -0.8420
vn -0.1317 -0.5395 -0.8316
vn -0.1437 -0.3959 -0.9070
vn -0.3766 -0.6931 -0.6146
vn -0.4087 -0.6842 -0.6040
vn -0.2602 -0.5395 -0.8008
vn -0.2838 -0.3959 -0.8733
vn -0.1030 -0.7527 -0.6503
vn -0.2035 -0.7527 -0.6262
vn 0.0905 -0.7698 -0.6318
vn -0.0034 -0.7698 -0.6382
vn -0.0000 -0.7687 -0.6396
vn 0.1001 -0.7687 -0.6317
vn -0.0972 -0.7699 -0.6308
vn -0.1890 -0.7698 -0.6096
vn -0.1977 -0.7687 -0.6083
vn -0.1001 -0.7687 -0.6317
vn -0.0000 -0.7527 -0.6584
vn -0.6426 0.1449 -0.7524
vn -0.2989 -0.7527 -0.5866
vn 0.1317 -0.5395 -0.8316
vn 0.0983 -0.4785 -0.8726
vn -0.2456 -0.7669 -0.5929
vn -0.2780 -0.7675 -0.5776
vn 0.0882 -0.1063 0.9904
vn -0.4538 -0.0278 -0.8907
vn -0.3500 -0.7425 -0.5712
vn -0.0303 -0.1084 -0.9936
vn 0.1499 -0.7666 -0.6243
vn 0.1498 -0.7669 -0.6240
vn 0.1030 -0.7527 -0.6503
vn 0.1530 -0.7554 -0.6372
vn -0.0000 0.3509 0.9364
vn 0.1926 -0.5651 -0.8022
vn 0.2051 -0.4777 -0.8543
vn 0.2847 0.6681 0.6874
vn -0.6912 -0.2109 -0.6912
vn 0.3265 0.6531 0.6833
vn -0.7469 -0.1874 -0.6379
vn 0.6184 0.3057 0.7240
vn 0.6494 -0.0020 0.7604
vn 0.6468 0.0897 0.7573
vn 0.5838 0.1165 0.8035
vn 0.5656 -0.0020 0.8247
vn -0.7224 -0.3122 -0.6170
vn -0.6336 -0.3126 -0.7077
vn -0.6055 -0.3618 -0.7089
vn 0.3826 -0.0195 0.9237
vn 0.4515 -0.1045 0.8861
vn 0.3268 -0.0020 0.9451
vn 0.0770 0.1948 0.9778
vn 0.0327 0.2345 0.9716
vn 0.4534 -0.2070 0.8669
vn 0.5113 -0.2064 0.8343
vn 0.5223 -0.0306 0.8522
vn -0.0714 0.4138 0.9076
vn -0.0695 0.4646 0.8828
vn 0.1802 -0.0020 0.9836
vt 1.000000 0.702185
vt 0.088868 0.000000
vt 0.237523 0.000000
vt 1.000000 0.575507
vt 0.426205 0.000000
vt 0.568419 0.213375
vt 0.850234 0.584054
vt 1.000000 0.762477
vt 1.000000 0.911132
vt 0.951593 0.853456
vt 0.746320 0.604210
vt 0.527508 0.329774
vt 0.304671 0.037083
vt 0.278158 0.000000
vt 1.000000 0.745936
vt 0.916033 0.615557
vt 0.858220 0.545649
vt 0.756739 0.437336
vt 0.599321 0.333205
vt 0.574559 0.327413
vt 0.456430 0.359007
vt 0.449434 0.365551
vt 0.426205 0.426205
vt 0.278158 0.278158
vt 0.287310 0.234293
vt 0.304791 0.185437
vt 0.361287 0.111567
vt 0.417769 0.082631
vt 0.451545 0.083837
vt 0.581038 0.124210
vt 0.584392 0.126620
vt 0.751058 0.261870
vt 0.789606 0.306983
vt 0.920323 0.466127
vt 1.000000 0.590217
vt 0.590217 0.590217
vt 0.795991 0.655714
vt 0.828762 0.669025
vt 1.000000 0.742422
vt 1.000000 0.841467
vt 0.922311 0.804759
vt 0.891447 0.792847
vt 0.745936 0.745936
vt 1.000000 0.703140
vt 0.841467 0.841467
vt 0.742422 0.742422
vt 0.857726 0.626217
vt 0.903893 0.583780
vt 1.000000 0.514001
vt 0.150000 0.109330
vt 0.148161 0.109330
vt 0.150000 0.110442
vt 0.225000 0.039817
vt 0.225000 0.030079
vt 0.200000 0.030079
vt 0.200000 0.039817
vt 0.200000 0.096915
vt 0.175000 0.096915
vt 0.175000 0.109330
vt 0.194340 0.109330
vt 0.200000 0.107608
vt 0.250000 0.039817
vt 0.250000 0.030079
vt 0.175000 0.030079
vt 0.175000 0.039817
vt 0.225000 0.446397
vt 0.200000 0.446397
vt 0.200000 0.460171
vt 0.225000 0.460171
vt 0.225000 0.470522
vt 0.200000 0.466969
vt 0.125000 0.085000
vt 0.118928 0.085000
vt 0.118558 0.089289
vt 0.125000 0.094376
vt 0.289548 0.030079
vt 0.275000 0.030079
vt 0.275000 0.039817
vt 0.284841 0.039817
vt 0.244683 0.085000
vt 0.225000 0.085000
vt 0.225000 0.096685
vt 0.150000 0.096915
vt 0.150000 0.085000
vt 0.128741 0.096915
vt 0.200000 0.430856
vt 0.175000 0.430856
vt 0.175000 0.446397
vt 0.225000 0.413624
vt 0.200000 0.413624
vt 0.225000 0.430856
vt 0.150000 0.430856
vt 0.150000 0.441373
vt 0.155387 0.446397
vt 0.224507 0.096915
vt 0.150000 0.110442
vt 0.163076 0.116787
vt 0.175000 0.114887
vt 0.270688 0.061533
vt 0.250000 0.061533
vt 0.250000 0.073140
vt 0.259644 0.073140
vt 0.264056 0.446397
vt 0.250000 0.446397
vt 0.250000 0.460171
vt 0.271711 0.460171
vt 0.273537 0.466442
vt 0.250000 0.470276
vt 0.259120 0.468843
vt 0.225000 0.073140
vt 0.200000 0.073140
vt 0.200000 0.085000
vt 0.175000 0.413624
vt 0.175000 0.061533
vt 0.175000 0.050363
vt 0.150000 0.050363
vt 0.150000 0.061533
vt 0.175000 0.073140
vt 0.150000 0.073140
vt 0.144332 0.039817
vt 0.134649 0.050363
vt 0.150000 0.039817
vt 0.250000 0.050363
vt 0.225000 0.050363
vt 0.225000 0.061533
vt 0.157027 0.030079
vt 0.150000 0.034727
vt 0.200000 0.050363
vt 0.200000 0.061533
vt 0.144332 0.039817
vt 0.225000 0.021335
vt 0.200000 0.021335
vt 0.175000 0.114887
vt 0.275000 0.012669
vt 0.250000 0.008404
vt 0.250000 0.013769
vt 0.275000 0.013769
vt 0.225000 0.008147
vt 0.200000 0.011868
vt 0.200000 0.013769
vt 0.225000 0.013769
vt 0.250000 0.021335
vt 0.128741 0.096915
vt 0.138947 0.103441
vt 0.175000 0.021335
vt 0.275000 0.050363
vt 0.275000 0.055903
vt 0.193955 0.013769
vt 0.175000 0.020030
vt 0.832628 0.749979
vt 0.703140 0.703140
vt 0.514001 0.514001
vt 0.597470 0.541196
vt 0.844835 0.638809
vt 0.289046 0.000000
vt 0.300130 0.007480
vt 0.332791 0.030920
vt 0.429708 0.111577
vt 0.515155 0.192024
vt 0.554047 0.232513
vt 0.589559 0.275553
vt 0.653342 0.359753
vt 0.662581 0.372604
vt 0.706931 0.453896
vt 0.720362 0.478633
vt 0.746654 0.564272
vt 0.744834 0.634595
vt 0.714691 0.692648
vt 0.706917 0.698600
vt 0.702185 0.702185
vt 0.575507 0.575507
vt 0.585571 0.555096
vt 0.587298 0.485555
vt 0.562359 0.401424
vt 0.514630 0.310806
vt 0.505028 0.296514
vt 0.406185 0.181922
vt 0.362080 0.141048
vt 0.269761 0.065153
vt 0.175000 0.085000
vt 0.175000 0.020030
vt 0.172452 0.021335
vt 0.259644 0.073140
vt 0.250000 0.081224
vt 0.293872 0.019325
vt 0.280151 0.014437
vt 0.278268 0.013769
vt 0.275000 0.021335
vt 0.293274 0.021335
vt 0.250000 0.008405
vt 0.225000 0.008147
vt 0.293274 0.021335
vt 0.289548 0.030079
vt 0.250000 0.430856
vt 0.200000 0.011868
vt 0.278849 0.050363
vt 0.224507 0.096915
vt 0.225000 0.096685
vt 0.278849 0.050363
vt 0.275000 0.055903
vt 0.277822 0.051726
vt 0.278268 0.013769
vt 0.275000 0.012669
vt 0.200000 0.466969
vt 0.178004 0.460171
vt 0.125000 0.073140
vt 0.175000 0.458952
vt 0.155388 0.446397
vt 0.121679 0.073140
vt 0.141707 0.430856
vt 0.145760 0.398579
vt 0.132519 0.407322
vt 0.133632 0.413624
vt 0.150000 0.413624
vt 0.150000 0.395788
vt 0.175000 0.458952
vt 0.178004 0.460172
vt 0.250000 0.470276
vt 0.225000 0.470522
vt 0.124506 0.066199
vt 0.121679 0.073140
vt 0.125000 0.065017
vt 0.133632 0.413624
vt 0.126758 0.061533
vt 0.184097 0.394772
vt 0.175000 0.394772
vt 0.200000 0.399873
vt 0.229088 0.413624
vt 0.250000 0.429628
vt 0.175000 0.392532
vt 0.161517 0.390707
vt 0.151891 0.394772
vt 0.251382 0.430856
vt 0.257225 0.437965
vt 0.225000 0.411257
vt 0.229088 0.413624
vt 0.134649 0.050363
vt 0.126758 0.061533
vt 0.175000 0.392532
vt 0.225000 0.411257
vt 0.200000 0.399873
vt 0.250000 0.081224
vt 0.251382 0.430857
vt 0.151891 0.394772
s 0
f 132/1/1 133/2/1 135/3/1 134/4/1
f 160/5/2 159/6/2 161/7/2 135/8/2 133/9/2 162/10/2 163/11/2 164/12/2 165/13/2 166/14/2
f 168/15/3 167/16/3 169/17/3 170/18/3 171/19/3 172/20/3 173/21/3 174/22/3 160/23/3 166/24/3 175/25/3 176/26/3 177/27/3 178/28/3 179/29/3 180/30/3 181/31/3 182/32/3 183/33/3 184/34/3 185/35/3
f 185/36/4 186/37/4 187/38/4 188/39/4 190/40/4 189/41/4 191/42/4 168/43/4
f 192/44/5 190/45/5 188/46/5 193/47/5 194/48/5 195/49/5
s 1
f 1/50/6 119/51/7 120/52/8
f 30/53/9 34/54/10 33/55/11 29/56/12
f 5/57/13 4/58/14 2/59/15 106/60/16 108/61/17
f 31/62/18 35/63/19 34/54/10 30/53/9
f 29/56/12 33/55/11 32/64/20 28/65/21
f 53/66/22 52/67/23 48/68/24 49/69/25
f 88/70/26 49/69/25 48/68/24 157/71/27
f 6/72/28 197/73/29 125/74/30 126/75/31
f 98/76/32 45/77/33 44/78/34 99/79/35
f 112/80/36 10/81/37 109/82/38
f 3/83/39 7/84/40 6/72/28 126/75/31 127/85/41
f 57/86/42 56/87/43 51/88/44 52/67/23
f 63/89/45 62/90/46 57/86/42 58/91/47
f 56/87/43 55/92/48 138/93/49 76/94/50 51/88/44
f 105/95/51 5/57/13 108/61/17
f 2/59/15 1/50/6 120/96/8 101/97/52 103/98/53
f 117/99/54 21/100/55 16/101/56 115/102/57
f 92/103/58 54/104/59 50/105/60 94/106/61
f 66/107/62 94/106/61 50/105/60 155/108/63 65/109/62
f 10/81/37 15/110/64 14/111/65 9/112/66
f 62/90/46 61/113/67 56/87/43 57/86/42
f 18/114/68 23/115/69 22/116/70 17/117/71
f 44/78/34 45/77/33 35/63/19 31/62/18
f 13/118/72 18/114/68 17/117/71 12/119/73
f 144/120/74 73/121/75 22/116/70 27/122/76
f 21/100/55 26/123/77 25/124/78 20/125/79
f 16/101/56 21/100/55 20/125/79 15/110/64
f 146/126/80 145/127/81 27/122/76 28/65/21 32/64/20
f 2/59/15 4/58/14 3/83/39 1/50/6
f 25/124/78 30/53/9 29/56/12 24/128/82
f 20/125/79 25/124/78 24/128/82 19/129/83
f 145/127/81 144/130/74 27/122/76
f 34/54/10 38/131/84 37/132/85 33/55/11
f 106/60/16 2/59/15 103/133/53
f 24/128/82 29/56/12 28/65/21 23/115/69
f 26/123/77 31/62/18 30/53/9 25/124/78
f 153/134/86 86/135/87 42/136/88 47/137/89
f 23/115/69 28/65/21 27/122/76 22/116/70
f 19/129/83 24/128/82 23/115/69 18/114/68
f 151/138/90 82/139/91 40/140/92 41/141/93
f 39/142/94 42/136/88 41/141/93 38/131/84
f 1/50/6 3/83/39 127/143/41 121/144/95 119/51/7
f 33/55/11 37/132/85 36/145/96 32/64/20
f 38/131/84 41/141/93 40/140/92 37/132/85
f 35/63/19 39/142/94 38/131/84 34/54/10
f 43/146/97 26/123/77 21/100/55 117/99/54 116/147/98
f 149/148/99 81/149/100 36/145/96 37/132/85 40/140/92
s 0
f 196/150/101 192/151/101 195/152/101 130/153/101 198/154/101 141/155/101 140/156/101 142/157/101 143/158/101 74/159/101 78/160/101 77/161/101 147/162/101 148/163/101 85/164/101 150/165/101 84/166/101 152/167/101 89/168/101 154/169/101 132/170/101 134/171/101 87/172/101 156/173/101 83/174/101 158/175/101 137/176/101 136/177/101 75/178/101 139/179/101
s 1
f 8/180/102 13/118/72 12/119/73 7/84/40
f 81/181/100 79/182/103 36/145/96
f 115/183/57 16/101/56 114/184/104
f 68/185/105 67/186/105 90/187/106 47/137/89 46/188/107 97/189/108
f 86/190/87 151/191/90 41/141/93 42/136/88
f 5/57/13 9/112/66 8/180/102 4/58/14
f 9/112/66 14/111/65 13/118/72 8/180/102
f 97/192/108 46/188/107 45/77/33 98/193/32
f 54/104/59 59/194/109 58/91/47 53/66/22
f 82/195/91 149/148/99 40/140/92
f 46/188/107 47/137/89 42/136/88 39/142/94
f 99/79/35 44/78/34 43/146/97 95/196/110
f 45/77/33 46/188/107 39/142/94 35/63/19
f 10/81/37 9/112/66 5/57/13 105/197/51 109/198/38
f 43/146/97 44/78/34 31/62/18 26/123/77
f 95/199/110 43/146/97 116/200/98 96/201/111
f 90/202/106 153/203/86 47/137/89
f 157/204/27 48/68/24 80/205/112
f 58/91/47 57/86/42 52/67/23 53/66/22
f 7/84/40 12/119/73 11/206/113 6/72/28
f 91/207/114 51/88/44 76/208/50
f 11/206/113 129/209/115 197/73/29 6/72/28
f 79/182/103 146/126/80 32/64/20 36/145/96
f 4/58/14 8/180/102 7/84/40 3/83/39
f 138/93/49 55/92/48 72/210/116
f 50/105/60 54/104/59 53/66/22 49/69/25
f 124/211/117 128/212/117 131/213/118 60/214/119 123/215/120
f 52/67/23 51/88/44 91/216/114 80/217/112 48/68/24
f 155/218/63 50/105/60 49/69/25 88/219/26
f 61/113/67 60/214/119 55/92/48 56/87/43
f 71/220/121 129/221/115 11/206/113 70/222/122
f 60/214/119 131/223/118 72/210/116 55/92/48
f 69/224/123 70/222/122 11/206/113 12/119/73 17/117/71
f 14/111/65 19/129/83 18/114/68 13/118/72
f 107/225/124 64/226/125 61/113/67 62/90/46 104/227/126
f 111/228/127 63/89/45 58/91/47 59/194/109 113/229/128
f 64/226/125 102/230/129 100/231/130 122/232/131
f 118/233/132 59/194/109 54/104/59 92/103/58 93/234/133
f 110/235/134 63/89/45 111/236/127
f 73/237/75 69/238/123 17/117/71 22/116/70
f 102/239/129 64/226/125 107/225/124
f 63/89/45 110/240/134 104/241/126 62/90/46
f 16/101/56 15/110/64 10/81/37 112/80/36 114/242/104
f 15/110/64 20/125/79 19/129/83 14/111/65
f 113/229/128 59/194/109 118/243/132
f 61/113/67 64/226/125 122/244/131 123/215/120 60/214/119
